<mxfile host="app.diagrams.net" modified="2024-06-21T10:03:41.013Z" agent="Mozilla/5.0 (Windows NT 10.0; Win64; x64) AppleWebKit/537.36 (KHTML, like Gecko) Chrome/126.0.0.0 Safari/537.36" version="24.6.0" etag="a0IvAZXeDpciiWQ80uVa" type="github">
  <diagram name="Page-1" id="GMRmJnamvD4tYH2oX4Sx">
    <mxGraphModel>
      <root>
        <mxCell id="0" />
        <mxCell id="1" parent="0" />
      </root>
    </mxGraphModel>
  </diagram>
</mxfile>
